<svg width="149" height="150" viewBox="0 0 149 150" fill="none" xmlns="http://www.w3.org/2000/svg">
<path d="M86.5256 106.002L105.067 87.461L86.5256 68.9198M61.804 44.1982L43.2628 62.7394L61.804 81.2806M48.2071 130.724H100.122C110.507 130.724 115.698 130.724 119.665 128.703C123.154 126.925 125.99 124.089 127.767 120.6C129.788 116.634 129.788 111.442 129.788 101.058V49.1425C129.788 38.7584 129.788 33.5664 127.767 29.6002C125.99 26.1115 123.154 23.275 119.665 21.4974C115.698 19.4766 110.507 19.4766 100.122 19.4766H48.2071C37.8231 19.4766 32.631 19.4766 28.6649 21.4974C25.1761 23.275 22.3397 26.1115 20.5621 29.6002C18.5412 33.5664 18.5412 38.7584 18.5412 49.1425V101.058C18.5412 111.442 18.5412 116.634 20.5621 120.6C22.3397 124.089 25.1761 126.925 28.6649 128.703C32.631 130.724 37.8231 130.724 48.2071 130.724Z" stroke="url(#paint0_linear_287_201)" stroke-width="12.3608" stroke-linecap="round" stroke-linejoin="round"/>
<defs>
<linearGradient id="paint0_linear_287_201" x1="74.1648" y1="19.4766" x2="74.1648" y2="130.724" gradientUnits="userSpaceOnUse">
<stop stop-color="#CFEE9E"/>
<stop offset="1" stop-color="#253C1B"/>
</linearGradient>
</defs>
</svg>
