<svg width="149" height="149" viewBox="0 0 149 149" fill="none" xmlns="http://www.w3.org/2000/svg">
<path d="M132.356 94.8142C114.909 107.227 92.0231 108.606 73.4046 98.8865M15.973 53.5155C33.4631 41.0729 56.4174 39.7176 75.0598 49.5143M95.0157 87.2939C112.857 76.0499 123.187 55.4638 121.142 34.0678M53.0392 61.2089C35.3662 72.4906 25.1517 92.9755 27.1862 114.262M95.9625 62.6508C95.1405 41.5849 82.4775 22.3536 62.9295 13.4252M52.3828 86.0658C53.3438 106.98 65.9715 126.031 85.399 134.905M117.866 30.4628C142.003 54.5988 142.003 93.7308 117.866 117.866C93.7307 142.003 54.5987 142.003 30.4628 117.866C6.32684 93.7308 6.32684 54.5987 30.4628 30.4628C54.5988 6.32685 93.7307 6.32685 117.866 30.4628ZM91.6455 56.684C101.3 66.3386 101.3 81.9911 91.6455 91.6455C81.9911 101.3 66.3386 101.3 56.684 91.6455C47.0297 81.9911 47.0297 66.3386 56.684 56.684C66.3386 47.0297 81.9911 47.0297 91.6455 56.684Z" stroke="url(#paint0_linear_287_203)" stroke-width="12.3608" stroke-linecap="round" stroke-linejoin="round"/>
<defs>
<linearGradient id="paint0_linear_287_203" x1="74.1648" y1="12.3608" x2="74.1648" y2="135.969" gradientUnits="userSpaceOnUse">
<stop stop-color="#CFEE9E"/>
<stop offset="1" stop-color="#253C1B"/>
</linearGradient>
</defs>
</svg>
