<svg width="51" height="52" viewBox="0 0 51 52" fill="none" xmlns="http://www.w3.org/2000/svg">
<mask id="mask0_287_35" style="mask-type:luminance" maskUnits="userSpaceOnUse" x="0" y="0" width="51" height="52">
<path d="M0 0.72937H50.7745V51.5039H0V0.72937Z" fill="white"/>
</mask>
<g mask="url(#mask0_287_35)">
<path d="M38.319 4.25029C21.5264 -5.62315 0.187156 6.43579 0.00204097 25.9069C-0.179297 44.919 19.9397 57.199 36.6964 48.831L18.4021 21.9156V38.5741C18.4021 40.4215 14.8698 40.4215 14.8698 38.5741V16.2412C14.8698 14.7754 17.5918 14.6545 18.3625 15.9296L39.2144 47.3954C54.8774 37.3066 54.6658 13.8631 38.319 4.25029ZM35.9635 35.7803L32.4199 30.3667V15.5499C32.4199 14.1691 35.9635 14.1691 35.9635 15.5499V35.7803Z" fill="#F1F1F4"/>
</g>
</svg>
