<svg width="57" height="57" viewBox="0 0 57 57" fill="none" xmlns="http://www.w3.org/2000/svg">
<path d="M50.6361 11.2093C50.0685 10.4849 49.4687 9.78874 48.8347 9.12266C48.1988 8.45659 47.5325 7.8225 46.8339 7.22039C46.1373 6.61829 45.4102 6.05382 44.6566 5.52133C43.903 4.99073 43.1247 4.49776 42.3199 4.04241C41.5169 3.58707 40.6931 3.17125 39.8503 2.79681C39.0055 2.4205 38.1437 2.08746 37.2667 1.79582C36.3897 1.50417 35.4995 1.2558 34.5959 1.05071C33.6942 0.84562 32.785 0.683805 31.8662 0.567147C30.9475 0.45049 30.0268 0.37899 29.1005 0.352648C28.176 0.324424 27.2516 0.34324 26.3271 0.405332C25.4046 0.469305 24.4858 0.576555 23.5728 0.727081C22.6597 0.879489 21.7561 1.07517 20.864 1.31601C19.9699 1.55497 19.091 1.83721 18.2254 2.16272C17.3598 2.48823 16.5132 2.85514 15.6836 3.26156C14.8541 3.66986 14.0473 4.11768 13.2634 4.60312C12.4775 5.08857 11.7201 5.61165 10.9874 6.17236C10.2546 6.73118 9.55038 7.32576 8.8784 7.95421C8.20452 8.58077 7.56291 9.2412 6.95547 9.93174C6.34614 10.6223 5.77476 11.3392 5.23756 12.0861C4.70035 12.8312 4.20301 13.6027 3.74174 14.3967C3.28236 15.1907 2.86095 16.0055 2.4832 16.8409C2.10355 17.6763 1.76566 18.5287 1.47143 19.3961C1.1772 20.2635 0.924733 21.144 0.717824 22.0359C0.510914 22.9297 0.347665 23.829 0.229973 24.7378C0.112282 25.6466 0.0401479 26.5573 0.0116745 27.4737C-0.0149013 28.3881 0.00408113 29.3025 0.0667237 30.217C0.131264 31.1296 0.239465 32.0384 0.393223 32.9415C0.546981 33.8447 0.744399 34.7384 0.987375 35.6209C1.23035 36.5052 1.51509 37.3745 1.84538 38.2306C2.17378 39.0867 2.54394 39.924 2.95586 40.7444C3.36778 41.5648 3.81956 42.3625 4.31121 43.1378C4.80286 43.9148 5.33247 44.6656 5.89815 45.39C6.46383 46.1144 7.06367 46.8087 7.69959 47.4767C8.3336 48.1427 8.99989 48.7768 9.69845 49.3771C10.397 49.9792 11.1221 50.5455 11.8776 51.0761C12.6312 51.6067 13.4095 52.0997 14.2144 52.555C15.0173 53.0104 15.8412 53.4262 16.6859 53.8006C17.5287 54.177 18.3905 54.51 19.2675 54.8016C20.1464 55.0914 21.0367 55.3398 21.9384 55.5449C22.84 55.7499 23.7512 55.9118 24.668 56.0284C25.5868 56.1451 26.5094 56.2166 27.4338 56.2429C28.3601 56.2693 29.2846 56.2523 30.2071 56.1884C31.1316 56.1263 32.0484 56.019 32.9615 55.8666C33.8746 55.7142 34.7781 55.5185 35.6722 55.2777C36.5644 55.0387 37.4452 54.7546 38.3089 54.4291C39.1745 54.1036 40.023 53.7385 40.8506 53.3302C41.6802 52.9219 42.4869 52.476 43.2709 51.9887C44.0549 51.5032 44.8142 50.9802 45.5469 50.4194C57.895 40.9815 60.1729 23.4283 50.6342 11.2093H50.6361Z" fill="#FF6C37"/>
<path d="M37.4815 18.2202L25.9832 29.8334L22.7346 26.4846C34.0498 15.1454 35.1869 16.1697 37.4815 18.2202Z" fill="white"/>
<path d="M25.8746 30.446C25.7675 30.4441 25.6735 30.4041 25.5965 30.3278L22.2386 26.929C22.1597 26.847 22.1202 26.7498 22.1202 26.6354C22.1202 26.5211 22.1597 26.4219 22.2386 26.34C33.6859 14.75 35.2493 15.2933 37.9533 17.7714C38.0491 17.8496 38.0961 17.9525 38.0923 18.0783C38.1092 18.1946 38.066 18.3109 37.9758 18.3852L26.179 30.3297C26.0926 30.4098 25.9911 30.4479 25.8746 30.4479V30.446ZM23.1236 26.6469L25.8746 29.4319L37.0663 18.1031C36.8747 17.8572 36.6436 17.6551 36.3767 17.4969C36.1099 17.3368 35.8243 17.232 35.518 17.1786C35.2136 17.1271 34.9092 17.1309 34.6048 17.1938C34.3004 17.2548 34.0185 17.3692 33.7554 17.537C31.7279 18.4558 28.464 21.2656 23.1236 26.6469Z" fill="#FF6C37"/>
<path d="M29.0503 33.5202L25.8069 30.1429L37.6954 18.1589C40.8895 21.3465 36.1447 26.6669 29.0503 33.5202Z" fill="white"/>
<path d="M29.3892 33.5201C29.2829 33.5126 29.1914 33.4729 29.1111 33.4049L25.8447 30.1773C25.7943 30.0527 25.7943 29.928 25.8447 29.8034C25.8092 29.7014 25.8092 29.5994 25.8447 29.4974L37.5646 17.6653C37.6486 17.586 37.7494 17.5444 37.8651 17.5444C37.9809 17.5444 38.0817 17.586 38.1657 17.6653C38.5502 18.0223 38.8432 18.4434 39.0448 18.9288C39.2464 19.416 39.3397 19.9222 39.3229 20.4491C39.3229 23.605 35.756 27.5805 29.6898 33.3804C29.6058 33.4635 29.505 33.5107 29.3874 33.5201H29.3892ZM26.7948 29.8034L29.4116 32.4436C34.0425 28.0243 38.468 23.4633 38.4904 20.3773C38.5166 19.6993 38.315 19.0988 37.8875 18.5775L26.7948 29.8034Z" fill="#FF6C37"/>
<path d="M22.8147 26.8069L25.1455 29.1651C25.1756 29.1936 25.1925 29.2279 25.1925 29.2716C25.1925 29.3135 25.1756 29.3478 25.1455 29.3763L20.2266 30.4364C20.1252 30.4593 20.0275 30.4479 19.9317 30.4041C19.8378 30.3603 19.7664 30.2899 19.7176 30.1966C19.6688 30.1034 19.6519 30.0044 19.6688 29.9016C19.6857 29.7969 19.7326 29.7094 19.8078 29.6352L22.6738 26.7612C22.6738 26.7612 22.7678 26.7612 22.8147 26.8069Z" fill="white"/>
<path d="M19.8925 30.4479C19.7397 30.4461 19.5979 30.4065 19.4651 30.3328C19.3324 30.2572 19.2269 30.1547 19.1487 30.0251C19.0596 29.8578 19.0287 29.6834 19.0596 29.4981C19.0887 29.311 19.1705 29.1527 19.3069 29.0214L22.0601 26.2816C22.1619 26.1917 22.282 26.1467 22.4202 26.1467C22.5584 26.1467 22.6784 26.1917 22.7802 26.2816L25.037 28.5105C25.1715 28.6346 25.2243 28.8253 25.1734 28.9998C25.1224 29.1761 24.9733 29.3146 24.7897 29.3578L20.0288 30.3597L19.8925 30.4479ZM22.4202 27.0624L19.8706 29.579L24.0914 28.6886L22.4202 27.0624Z" fill="#FF6C37"/>
<path d="M44.2405 11.4635C42.482 9.80401 39.719 9.73494 37.8744 11.3004C36.0298 12.8658 35.7165 15.5516 37.1519 17.4854C38.5872 19.4173 41.2954 19.9602 43.3906 18.7324L40.0852 15.5018L44.2405 11.4635Z" fill="white"/>
<path d="M41.1588 20.0002C40.6713 19.9942 40.1951 19.9143 39.7303 19.7585C39.2654 19.6047 38.8308 19.383 38.4283 19.0934C38.0239 18.8038 37.6687 18.4603 37.3626 18.0608C37.0565 17.6614 36.8089 17.224 36.6256 16.7466C36.4404 16.2713 36.3252 15.778 36.276 15.2667C36.2288 14.7554 36.2534 14.2481 36.346 13.7428C36.4404 13.2395 36.6011 12.7601 36.8278 12.3047C37.0546 11.8514 37.338 11.4399 37.68 11.0744C37.9124 10.8328 38.1657 10.6171 38.4378 10.4293C38.7099 10.2396 38.9952 10.0798 39.2975 9.94998C39.598 9.82016 39.9098 9.72229 40.2291 9.65638C40.5485 9.59047 40.8716 9.55652 41.1966 9.55652C41.5235 9.55652 41.8447 9.59047 42.166 9.65638C42.4853 9.72229 42.7952 9.82016 43.0976 9.94998C43.398 10.0798 43.6852 10.2396 43.9573 10.4293C44.2294 10.6171 44.4808 10.8328 44.7132 11.0744C44.8039 11.1523 44.8549 11.2702 44.8549 11.396C44.8549 11.5258 44.8077 11.6317 44.7132 11.7176L40.915 15.5004L43.8005 18.4942C43.9006 18.5961 43.9403 18.7199 43.9158 18.8637C43.9025 19.0016 43.8402 19.1094 43.7287 19.1853C42.9407 19.7066 42.0809 19.9782 41.1513 20.0022L41.1588 20.0002ZM41.1588 10.4054C39.4884 10.4133 37.9937 11.4739 37.3663 13.0937C36.739 14.7134 37.081 16.5789 38.2507 17.8232C38.5436 18.1327 38.8705 18.3904 39.2352 18.5941C39.5999 18.7978 39.9854 18.9416 40.3916 19.0235C40.7979 19.1054 41.2061 19.1214 41.6161 19.0735C42.0261 19.0255 42.4211 18.9137 42.8009 18.7399L40.0326 15.8199C39.9891 15.784 39.9532 15.738 39.9287 15.6821C39.9041 15.6282 39.8928 15.5723 39.8928 15.5123C39.8928 15.4504 39.9041 15.3945 39.9287 15.3406C39.9532 15.2847 39.9891 15.2407 40.0326 15.2028L43.6909 11.3201C42.9445 10.7149 42.0998 10.4093 41.1588 10.4034V10.4054Z" fill="#FF6C37"/>
<path d="M44.0739 11.3999L39.9393 15.4962L43.2282 18.7733C43.5595 18.5826 43.8673 18.3588 44.146 18.098C44.3603 17.8743 44.5493 17.631 44.7169 17.3683C44.8825 17.1075 45.0228 16.8331 45.1358 16.5451C45.2488 16.2571 45.3345 15.9594 45.391 15.6558C45.4456 15.3503 45.4729 15.0448 45.469 14.7354C45.4651 14.4259 45.4319 14.1185 45.3696 13.8149C45.3072 13.5113 45.2157 13.2175 45.0968 12.9314C44.978 12.6473 44.8318 12.3748 44.6604 12.116C44.4869 11.8592 44.2921 11.6198 44.0739 11.3999Z" fill="white"/>
<path d="M43.1943 19.3703C43.0749 19.376 42.9736 19.3363 42.8926 19.2533L39.4767 16.0749C39.4281 16.0391 39.3916 15.9957 39.3653 15.9447C39.339 15.8937 39.3248 15.839 39.3248 15.7824C39.3248 15.7258 39.339 15.671 39.3653 15.6201C39.3916 15.5691 39.4281 15.5257 39.4767 15.4898L43.7471 11.5886C43.7896 11.5282 43.8423 11.4829 43.9091 11.449C43.9759 11.4169 44.0488 11.3999 44.1237 11.3999C44.2007 11.3999 44.2715 11.4169 44.3384 11.449C44.4052 11.4829 44.4599 11.5282 44.5003 11.5886C44.7514 11.817 44.9762 12.0661 45.1726 12.336C45.369 12.6059 45.5371 12.8909 45.6727 13.1929C45.8084 13.493 45.9117 13.8025 45.9805 14.1234C46.0494 14.4442 46.0838 14.767 46.0838 15.0935C46.0838 15.42 46.0494 15.7428 45.9805 16.0636C45.9117 16.3826 45.8084 16.694 45.6727 16.9941C45.5371 17.2961 45.369 17.5811 45.1726 17.851C44.9762 18.1208 44.7514 18.37 44.5003 18.5984C44.2027 18.8928 43.8686 19.1419 43.496 19.3458C43.3988 19.391 43.2976 19.4005 43.1943 19.3703ZM40.4324 15.7711L43.2713 18.4115C43.4657 18.285 43.6499 18.1435 43.824 17.9906C44.2412 17.6037 44.5631 17.1583 44.7879 16.6525C45.0147 16.1448 45.1281 15.6182 45.1301 15.0708C45.1321 14.5801 45.039 14.1045 44.8527 13.6459C44.6664 13.1872 44.3991 12.7739 44.0488 12.4059L40.4324 15.7711Z" fill="#FF6C37"/>
<path d="M38.1511 18.6269C37.9925 18.4766 37.813 18.3606 37.6109 18.2807C37.407 18.2008 37.1973 18.1589 36.9801 18.1589C36.7629 18.1589 36.5514 18.2008 36.3493 18.2807C36.1472 18.3606 35.9658 18.4766 35.8072 18.6269L25.1925 29.2723L26.9509 31.0624L38.1757 21.1684C38.2607 21.0866 38.3381 20.9972 38.4042 20.8983C38.4722 20.7994 38.5289 20.6966 38.5742 20.5863C38.6214 20.476 38.6554 20.3637 38.6781 20.2458C38.7007 20.1297 38.7121 20.0118 38.7102 19.892C38.7102 19.7721 38.697 19.6561 38.6705 19.5381C38.646 19.4221 38.6101 19.3098 38.561 19.2014C38.5138 19.0911 38.4552 18.9883 38.3853 18.8913C38.3173 18.7943 38.238 18.7068 38.1511 18.625V18.6269Z" fill="white"/>
<path d="M26.8096 31.0589C26.6976 31.057 26.6029 31.0178 26.5218 30.9449L24.6998 29.1841C24.6186 29.1037 24.578 29.0084 24.578 28.8944C24.578 28.7822 24.6186 28.6869 24.6998 28.6065L35.5602 18.1671C35.7168 18.0157 35.8926 17.8905 36.0877 17.7914C36.2829 17.6924 36.4896 17.6213 36.706 17.5821C36.9224 17.5428 37.1407 17.5335 37.361 17.5578C37.5813 17.5802 37.7919 17.6344 37.9947 17.7204C38.1976 17.8045 38.3831 17.9167 38.5512 18.055C38.7193 18.1933 38.8623 18.3522 38.982 18.5335C39.0999 18.7129 39.1888 18.9055 39.2467 19.1129C39.3047 19.3185 39.3298 19.5279 39.324 19.741C39.3105 20.0326 39.241 20.313 39.1115 20.5765C38.982 20.8419 38.8062 21.0718 38.5802 21.2681L27.0975 30.9897C27.0106 31.0477 26.914 31.072 26.8096 31.0589ZM25.5383 28.8832L26.7382 30.0626L38.0044 20.5971C38.2826 20.3616 38.4507 20.027 38.4604 19.67C38.472 19.3148 38.3251 18.9653 38.0527 18.7223C37.9271 18.6008 37.7822 18.5073 37.618 18.4419C37.4537 18.3765 37.2837 18.3447 37.1059 18.3447C36.9282 18.3447 36.7582 18.3765 36.5939 18.4419C36.4297 18.5073 36.2848 18.6008 36.1592 18.7223L25.5383 28.8832Z" fill="#FF6C37"/>
<path d="M17.1143 41.0485C17.0465 41.1383 17.0465 41.23 17.1143 41.3198L17.5691 43.2954C17.5875 43.4145 17.571 43.5281 17.5196 43.6363C17.4683 43.7444 17.3894 43.8305 17.2849 43.891C17.1822 43.9515 17.0703 43.9753 16.9493 43.9625C16.83 43.9515 16.7255 43.9057 16.6356 43.825L13.5179 40.8305L23.2342 31.0624H26.6032L28.8792 33.333C25.3121 36.4431 21.3911 39.0143 17.1143 41.0485Z" fill="white"/>
<path d="M16.7989 44.5802C16.5357 44.5746 16.2744 44.4672 16.0995 44.277L13.0445 41.2225C12.9994 41.1867 12.9655 41.1434 12.9411 41.0926C12.9148 41.0417 12.9035 40.9871 12.9035 40.9306C12.9035 40.8741 12.9148 40.8195 12.9411 40.7687C12.9655 40.7178 12.9994 40.6745 13.0445 40.6387L23.0744 30.5901C23.1308 30.5279 23.2023 30.4902 23.2831 30.4733H26.7593C26.8533 30.4394 26.9454 30.4394 27.0394 30.4733L29.3725 32.8047C29.4684 32.8932 29.5079 33.0024 29.4891 33.1324C29.4928 33.2566 29.4458 33.3565 29.3481 33.4355L29.162 33.5994C25.494 36.6558 21.5046 39.2132 17.1956 41.2696L17.6393 43.1584C17.6731 43.3053 17.675 43.4541 17.643 43.6029C17.6111 43.7498 17.5471 43.8835 17.455 44.004C17.3629 44.1245 17.2482 44.2187 17.1129 44.2865C16.9775 44.3543 16.8346 44.39 16.6823 44.3938L16.7989 44.5802ZM13.9525 40.9193L16.7049 43.6933C16.7669 43.7498 16.829 43.7498 16.891 43.6933C16.9305 43.6386 16.9305 43.584 16.891 43.5294L16.4248 41.5012C16.3872 41.3506 16.4022 41.2056 16.468 41.0662C16.5338 40.9269 16.6353 40.8233 16.7763 40.7555C20.9688 38.7254 24.8567 36.2227 28.4381 33.2472L26.5262 31.3339H23.3997L13.9525 40.9193Z" fill="#FF6C37"/>
<path d="M10.6656 43.2869L12.9982 40.8936L16.5902 44.5803L10.8761 44.1743C10.7765 44.1646 10.6882 44.1279 10.6111 44.0602C10.534 43.9945 10.4833 43.9094 10.4588 43.8089C10.4363 43.7084 10.4419 43.6098 10.4814 43.515C10.519 43.4184 10.581 43.343 10.6675 43.2888L10.6656 43.2869Z" fill="white"/>
<path d="M16.8965 45.1947L11.2428 44.8008C10.9086 44.7709 10.6192 44.5413 10.5016 44.2352C10.3839 43.929 10.4549 43.5668 10.6864 43.3223L13.0035 41.0093C13.0857 40.9328 13.1809 40.8936 13.2948 40.8936C13.4068 40.8936 13.5021 40.9328 13.5842 41.0093L17.1281 44.5469C17.1785 44.616 17.2046 44.6925 17.2046 44.7784C17.2046 44.8624 17.1785 44.9408 17.1281 45.008C17.0739 45.0976 16.9955 45.1592 16.8965 45.1928V45.1947ZM11.2428 43.901L15.8771 44.2016L13.3284 41.8195L11.2428 43.901Z" fill="#FF6C37"/>
<path d="M27.0358 31.0196L22.1202 31.6768L24.9684 29.219L27.0358 31.0196Z" fill="white"/>
<path d="M22.5772 32.2909C22.3975 32.2968 22.2713 32.2165 22.1967 32.0481C22.1451 31.9777 22.1202 31.8954 22.1202 31.8073C22.1202 31.7173 22.1451 31.637 22.1967 31.5646L24.9481 28.7278C25.036 28.6456 25.1374 28.6045 25.2578 28.6045C25.3764 28.6045 25.4796 28.6456 25.5657 28.7278L27.5829 30.7874C27.6727 30.9342 27.6727 31.0791 27.5829 31.2239C27.5389 31.4021 27.428 31.5078 27.2521 31.5391L22.5064 32.2909H22.5772ZM25.3534 29.6499L23.8104 31.2239L26.4682 30.8128L25.3534 29.6499Z" fill="#FF6C37"/>
<path d="M27.0358 31.2382L23.8466 31.6658C23.759 31.6869 23.6733 31.6773 23.5913 31.639C23.5092 31.6006 23.4454 31.5412 23.4016 31.4587C23.3579 31.3782 23.3415 31.29 23.3524 31.196C23.3633 31.1021 23.3998 31.0215 23.4618 30.9525L25.1139 29.219L27.0358 31.2382Z" fill="white"/>
<path d="M23.5956 32.2913C23.44 32.2894 23.2939 32.2486 23.1591 32.1652C23.0243 32.0837 22.918 31.9731 22.8421 31.8335C22.751 31.6647 22.7168 31.4843 22.7434 31.2941C22.77 31.1021 22.8497 30.9372 22.9845 30.8014L24.7041 29.0476C24.7895 28.9642 24.892 28.9234 25.0097 28.9234C25.1274 28.9234 25.2299 28.9642 25.3153 29.0476L27.3178 31.0885C27.4506 31.2185 27.4867 31.3717 27.426 31.5483C27.3652 31.7248 27.2419 31.8199 27.0596 31.8335L23.7627 32.2661L23.5956 32.2913ZM23.5956 31.4008L26.0935 31.0885L24.9869 29.9613L23.5729 31.4008H23.5956ZM44.0854 14.0338C44.0399 13.9562 43.9734 13.9019 43.888 13.8747C43.8026 13.8475 43.7191 13.8534 43.6375 13.8902C43.5558 13.9329 43.5008 13.9989 43.4742 14.0881C43.4458 14.1773 43.4534 14.2646 43.497 14.3461C43.6621 14.7011 43.6166 15.1202 43.3793 15.4287C43.3167 15.4907 43.2882 15.5664 43.2901 15.6556C43.292 15.7429 43.3205 15.8186 43.3793 15.8826C43.442 15.9078 43.5046 15.9078 43.5672 15.8826C43.6887 15.9137 43.7912 15.8826 43.8747 15.7876C44.0721 15.5392 44.1898 15.2579 44.2278 14.9417C44.2657 14.6255 44.2183 14.3228 44.0854 14.0338Z" fill="#FF6C37"/>
</svg>
