<svg width="28" height="28" viewBox="0 0 28 28" fill="none" xmlns="http://www.w3.org/2000/svg">
<path fill-rule="evenodd" clip-rule="evenodd" d="M13.5994 20.7063C17.3547 20.7063 20.399 17.662 20.399 13.9066C20.399 10.1513 17.3547 7.10693 13.5994 7.10693C9.844 7.10693 6.79968 10.1513 6.79968 13.9066C6.79968 17.662 9.844 20.7063 13.5994 20.7063ZM13.5994 18.4397C16.1029 18.4397 18.1325 16.4101 18.1325 13.9066C18.1325 11.403 16.1029 9.37349 13.5994 9.37349C11.0958 9.37349 9.06624 11.403 9.06624 13.9066C9.06624 16.4101 11.0958 18.4397 13.5994 18.4397Z" fill="#CFEE9E"/>
<path d="M20.399 5.97363C19.7731 5.97363 19.2657 6.48102 19.2657 7.10691C19.2657 7.7328 19.7731 8.24019 20.399 8.24019C21.0249 8.24019 21.5323 7.7328 21.5323 7.10691C21.5323 6.48102 21.0249 5.97363 20.399 5.97363Z" fill="#CFEE9E"/>
<path fill-rule="evenodd" clip-rule="evenodd" d="M1.87442 5.15263C1.1333 6.60716 1.1333 8.51125 1.1333 12.3194V15.4926C1.1333 19.3008 1.1333 21.2049 1.87442 22.6594C2.52633 23.9388 3.56654 24.9791 4.84599 25.6309C6.30052 26.3721 8.20461 26.3721 12.0128 26.3721H15.186C18.9941 26.3721 20.8983 26.3721 22.3527 25.6309C23.6322 24.9791 24.6724 23.9388 25.3243 22.6594C26.0654 21.2049 26.0654 19.3008 26.0654 15.4926V12.3194C26.0654 8.51125 26.0654 6.60716 25.3243 5.15263C24.6724 3.87318 23.6322 2.83297 22.3527 2.18106C20.8983 1.43994 18.9941 1.43994 15.186 1.43994H12.0128C8.20461 1.43994 6.30052 1.43994 4.84599 2.18106C3.56654 2.83297 2.52633 3.87318 1.87442 5.15263ZM15.186 3.7065H12.0128C10.0713 3.7065 8.75149 3.70827 7.73134 3.79161C6.73764 3.8728 6.22948 4.01995 5.87499 4.20058C5.02202 4.63519 4.32855 5.32867 3.89394 6.18163C3.71331 6.53612 3.56616 7.04428 3.48497 8.03799C3.40163 9.05813 3.39986 10.3779 3.39986 12.3194V15.4926C3.39986 17.4341 3.40163 18.7538 3.48497 19.774C3.56616 20.7678 3.71331 21.276 3.89394 21.6304C4.32855 22.4834 5.02202 23.1768 5.87499 23.6114C6.22948 23.7921 6.73764 23.9393 7.73134 24.0204C8.75149 24.1037 10.0713 24.1055 12.0128 24.1055H15.186C17.1275 24.1055 18.4472 24.1037 19.4674 24.0204C20.4612 23.9393 20.9693 23.7921 21.3238 23.6114C22.1767 23.1768 22.8702 22.4834 23.3048 21.6304C23.4854 21.276 23.6326 20.7678 23.7138 19.774C23.7971 18.7538 23.7989 17.4341 23.7989 15.4926V12.3194C23.7989 10.3779 23.7971 9.05813 23.7138 8.03799C23.6326 7.04428 23.4854 6.53612 23.3048 6.18163C22.8702 5.32867 22.1767 4.63519 21.3238 4.20058C20.9693 4.01995 20.4612 3.8728 19.4674 3.79161C18.4472 3.70827 17.1275 3.7065 15.186 3.7065Z" fill="#CFEE9E"/>
</svg>
