<svg width="29" height="28" viewBox="0 0 29 28" fill="none" xmlns="http://www.w3.org/2000/svg">
<path d="M8.4451 9.51617C9.39867 9.51617 10.1717 8.74315 10.1717 7.78958C10.1717 6.83601 9.39867 6.06299 8.4451 6.06299C7.49152 6.06299 6.71851 6.83601 6.71851 7.78958C6.71851 8.74315 7.49152 9.51617 8.4451 9.51617Z" fill="#CFEE9E"/>
<path d="M6.71851 11.8176C6.71851 11.1819 7.23386 10.6665 7.86957 10.6665H9.02063C9.65633 10.6665 10.1717 11.1818 10.1717 11.8176V21.026C10.1717 21.6618 9.65633 22.1771 9.02063 22.1771H7.86957C7.23386 22.1771 6.71851 21.6618 6.71851 21.026V11.8176Z" fill="#CFEE9E"/>
<path d="M13.6249 22.1771H14.7759C15.4117 22.1771 15.927 21.6618 15.927 21.026V15.8463C15.927 14.1197 19.3802 12.9686 19.3802 15.2707V21.0265C19.3802 21.6622 19.8955 22.1771 20.5312 22.1771H21.6823C22.318 22.1771 22.8334 21.6618 22.8334 21.026V14.1197C22.8334 11.8176 21.1068 10.6665 18.8046 10.6665C16.5025 10.6665 15.927 12.3931 15.927 12.3931V11.8176C15.927 11.1818 15.4117 10.6665 14.7759 10.6665H13.6249C12.9891 10.6665 12.4738 11.1819 12.4738 11.8176V21.026C12.4738 21.6618 12.9891 22.1771 13.6249 22.1771Z" fill="#CFEE9E"/>
<path fill-rule="evenodd" clip-rule="evenodd" d="M23.9845 1.45801C25.8917 1.45801 27.4376 3.00405 27.4376 4.91119V23.3282C27.4376 25.2353 25.8917 26.7813 23.9845 26.7813H5.5675C3.66037 26.7813 2.11432 25.2353 2.11432 23.3282V4.91119C2.11432 3.00405 3.66037 1.45801 5.5675 1.45801H23.9845ZM23.9845 3.76013C24.6202 3.76013 25.1355 4.27548 25.1355 4.91119V23.3282C25.1355 23.9639 24.6202 24.4792 23.9845 24.4792H5.5675C4.93179 24.4792 4.41644 23.9639 4.41644 23.3282V4.91119C4.41644 4.27548 4.93179 3.76013 5.5675 3.76013H23.9845Z" fill="#CFEE9E"/>
</svg>
